<?xml version="1.0" encoding="UTF-8" standalone="no"?>
<svg
   width="133"
   height="164"
   viewBox="0 0 133 164"
   fill="none"
   version="1.1"
   xmlns="http://www.w3.org/2000/svg">
  <path
     opacity="0.1"
     fill-rule="evenodd"
     clip-rule="evenodd"
     d="m 215.27829,39.496981 2.03612,7.608823 c 1.14374,4.265622 3.3893,8.154922 6.51238,11.278424 l 5.572,5.572002 c 3.12343,3.123149 5.3692,7.012236 6.51238,11.278424 1.14325,4.266116 1.1434,8.758931 0,13.024907 l -2.03597,7.607974 c -1.14594,4.265695 -1.14585,8.758565 4e-5,13.024875 l 2.03616,7.60877 c 1.14317,4.2662 1.14337,8.75754 1e-5,13.02348 -1.14335,4.26593 -3.38947,8.15678 -6.51248,11.27979 l -5.565,5.565 c -3.12591,3.12449 -5.37451,7.01641 -6.51945,11.28535 l -2.02905,7.60105 c -1.1465,4.26626 -3.39439,8.15605 -6.51811,11.27976 -3.12378,3.12379 -7.01358,5.37168 -11.27976,6.51811 l -7.60868,2.03668 c -4.26676,1.14135 -8.15676,3.38804 -11.27843,6.51253 l -5.565,5.565 c -3.12421,3.1228 -7.01542,5.36927 -11.28281,6.51408 -4.26668,1.1441 -8.75964,1.14551 -13.02703,0.005 l -7.60139,-2.04354 c -4.26669,-1.14127 -8.75894,-1.14198 -13.02491,0 l -7.60847,2.03647 c -4.26668,1.14551 -8.75893,1.14622 -13.02491,0.003 -4.26668,-1.14269 -8.15718,-3.38987 -11.279056,-6.51458 l -5.572002,-5.572 c -3.125412,-3.12117 -7.018035,-5.36482 -11.284717,-6.50609 l -7.601398,-2.04354 c -4.267389,-1.14056 -8.159305,-3.38492 -11.282596,-6.50821 -3.12329,-3.12329 -5.367647,-7.0152 -6.50821,-11.28259 l -2.043539,-7.6014 c -1.139149,-4.26739 -3.383506,-8.16072 -6.50609,-11.28472 l -5.56493,-5.56493 c -3.124068,-3.12429 -5.372385,-7.0145 -6.516272,-11.28239 -1.144593,-4.26717 -1.145301,-8.76084 -0.0025,-13.02886 l 2.043397,-7.60154 c 1.139856,-4.26951 1.137381,-8.76353 -0.0071,-13.03198 l -2.036326,-7.594186 c -1.144028,-4.268025 -1.14417,-8.762537 -0.0015,-13.030634 1.143462,-4.268733 3.389304,-8.160578 6.513372,-11.286343 l 5.565002,-5.565002 c 3.124634,-3.121522 5.3709,-7.011953 6.512453,-11.278494 l 2.043821,-7.60154 c 1.141695,-4.268662 3.387749,-8.161144 6.512242,-11.285636 3.124492,-3.124493 7.016974,-5.370547 11.285636,-6.512241 l 7.593903,-2.036185 c 4.268803,-1.145089 8.161002,-3.393405 11.285424,-6.519383 L 96.1799,7.5854645 c 3.123786,-3.123927 7.01535,-5.370052 11.28302,-6.512022 4.26761,-1.14206199 8.76088,-1.13968199 13.0274,0.0067 l 7.60156,2.028951 c 4.26789,1.14784 8.76286,1.150215 13.03194,0.0071 l 7.60105,-2.042903 c 4.26802,-1.14049199 8.76084,-1.13865399 13.0278,0.0056 4.26697,1.144381 8.15804,3.390859 11.2826,6.513867 l 5.57907,5.5790735 c 3.12181,3.124775 7.01196,5.3709 11.27843,6.512382 l 7.60882,2.036114 c 4.26074,1.145796 8.14537,3.391779 11.26513,6.511534 3.11975,3.119755 5.36574,7.004388 6.51153,11.26513 z"
     fill="#b5aeff"
   />
  <g opacity="0.2" transform="rotate(45,80.806113,83.712795)">
    <path
       opacity="0.2"
       d="m 111.957,58.4411 c 1.29,3.44 2.45,7.16 2.32,11 0.014,1.2778 -0.237,2.5449 -0.737,3.7207 -0.5,1.1759 -1.239,2.2345 -2.169,3.1104 -0.93,0.8759 -2.032,1.5502 -3.236,1.9785 -1.204,0.4284 -2.484,0.6021 -3.758,0.5107 -5.5401,0.39 -17.7401,-5.8 -20.0001,0.42 -1.07,3 -0.9301,7.4602 -1.0801,11.2002 -0.15,5.2 -0.5399,10.5804 -2.4399,15.8304 -3,9 -11.08,16.13 -19.91,19 -5.4272,1.813 -11.0988,2.791 -16.82,2.899 -2.8271,0.114 -5.5837,-0.9 -7.6634,-2.818 -2.0797,-1.919 -3.3123,-4.584 -3.4267,-7.411 -0.111,-2.829 0.9052,-5.585 2.8252,-7.664 1.92,-2.08 4.5868,-3.313 7.4148,-3.427 7,0.53 14.8601,1.1 20.1301,-3.5 5.44,-4.8003 5.71,-14.3701 7.47,-21.5501 2.08,-10.67 9.85,-17.7802 21.24,-14.7002 2.4086,0.664 4.7678,1.4962 7.06,2.4903 2.7401,1 5.0801,2.27 7.4801,2 3.59,-1.11 2.27,-8.9999 1.71,-12.1699 -0.074,-0.4542 0.022,-0.9199 0.27,-1.3077 0.247,-0.3877 0.629,-0.6701 1.072,-0.7939 0.444,-0.1238 0.917,-0.0802 1.33,0.123 0.413,0.2033 0.736,0.5518 0.908,0.9786 z"
       fill="#eac9f8"
     />
  </g>
  <path
     d="m 159.55807,139.32652 c -5.96304,0.20294 -11.91518,0.29459 -17.85466,0.27599 -5.93942,-0.0187 -11.88399,-0.16087 -17.83288,-0.42462 -11.87911,-0.5094 -23.70901,-1.49652 -35.489408,-2.96306 l 0.338704,-3.33683 c 11.742924,0.95671 23.509254,1.44737 35.298844,1.4707 5.87839,0.005 11.75473,-0.10161 17.62845,-0.31848 5.87373,-0.21686 11.73536,-0.54892 17.58554,-0.9968 z"
     fill="#ffcfd1"
   />
  <path
     d="m 111.97013,109.09029 c -1.2445,1.9799 0.3677,4.46891 1.94455,6.18718 5.50129,6.10941 19.31815,20.73237 19.31815,20.73237 0,0 -1.12479,1.12479 -0.65103,1.0753 -2.8659,6.35477 -5.73442,12.71074 -8.60492,19.0701 -0.60811,1.35765 -1.09602,3.14663 0.0283,4.10122 1.27279,1.04652 3.11834,-0.17678 4.24264,-1.41421 5.2118,-5.46919 9.68737,-11.59514 13.31461,-18.22193 3.12541,0.83438 3.73345,-6.56188 1.51314,-6.44875 -3.97394,0.26871 -6.69637,-3.69809 -8.73991,-7.09927 -4.03051,-6.70337 -8.69756,-13.25104 -15.12516,-17.72703 -2.22031,-1.51321 -5.79078,-2.55308 -7.24035,-0.25498 z"
     fill="#ffcfd1"
   />
  <path
     d="m 108.0592,137.84895 -20.937435,17.54332 c -1.887975,1.57685 -3.917372,4.27093 -2.340524,6.14476 1.576848,1.87383 4.639328,0.39527 6.520232,-1.11793 7.028641,-5.69929 13.010767,-10.18234 18.893897,-16.99885 0.83438,-0.96167 4.85725,-5.36638 4.85725,-5.36638 0,0 -0.3889,-3.21733 -1.14551,-3.97394 -6.18011,-6.18011 -13.957863,-14.41125 -20.116763,-20.61258 -0.838982,-1.02919 -1.959817,-1.79068 -3.22476,-2.19168 -1.294006,-0.27577 -2.898926,0.52305 -2.948423,1.84534 0.04921,0.46697 0.193323,0.91966 0.423132,1.32908 0.22981,0.40941 0.54023,0.76792 0.912875,1.05429 l 19.353509,19.35351 c -1.68998,0.91217 -1.9304,2.77893 -0.24748,2.99106 z"
     fill="#ffcfd1"
   />
  <path
     d="m 62.67772,118.06333 c -0.770747,0.86974 -0.254559,2.23446 0.367695,3.19613 2.308209,3.66585 5.526818,6.67091 9.342366,8.72294 3.815548,2.05061 8.098494,3.07662 12.429523,2.97974 -5.716252,0.30123 -11.394319,1.11864 -16.964199,2.44022 -2.807214,0.67176 -5.76292,1.52028 -7.67918,3.63453 -0.367695,0.33234 -0.655488,0.74317 -0.842164,1.20279 -0.187383,0.45891 -0.2687,0.95318 -0.239002,1.44816 0.339411,2.05061 3.153696,2.31931 5.211377,2.02939 10.626401,-1.52452 21.049862,-4.23062 31.076636,-8.06738 -5.487149,4.07294 -11.107941,8.27952 -14.685901,14.10608 -0.46669,0.74953 -0.883883,1.73241 -0.381838,2.44658 0.685894,1.01117 2.2486,0.4667 3.273905,-0.19091 6.539323,-4.20729 12.405481,-9.37765 17.401902,-15.33715 0.68589,0.14849 4.08707,-0.96167 2.3688,-2.36881 -5.267235,-4.58275 -10.003436,-9.7418 -14.120919,-15.37957 -1.032376,-1.38593 -2.12132,-2.88499 -3.754737,-3.44361 -1.633417,-0.55861 -3.860803,0.38184 -3.867874,2.1284 0.137179,1.00267 0.643467,1.91908 1.420577,2.5675 l 11.822826,12.5865 -28.644259,-14.64496 c -1.145513,-0.49497 -2.694077,-0.99702 -3.535534,-0.0566 z"
     fill="#ffcfd1"
   />
  <path
     d="m 96.434997,105.91538 c -1.322289,4.15072 1.922907,8.21701 4.949323,11.34242 l 16.14353,16.6945 c -0.8061,0.52326 1.4705,3.74795 1.4705,3.74795 -3.31633,2.34052 -7.66454,9.17775 -13.51231,18.78733 -1.18794,1.95162 -3.26047,6.0889 -0.18456,7.17077 3.42947,1.20915 17.8833,-18.88739 19.99047,-22.05522 0.87682,-1.31522 2.55952,-3.70503 2.55952,-3.70503 l -3.11127,-4.52548 c 0,0 -3.33719,-3.2389 -4.47563,-4.61776 -6.39225,-7.67918 -13.00391,-15.18137 -19.60829,-22.69085 -0.905093,-1.03237 -2.361521,-2.13567 -3.471679,-1.33664 -0.372079,0.3042 -0.635052,0.72132 -0.749604,1.18801 z"
     fill="#ffcfd1"
   />
  <path
     d="m 96.102728,137.30377 c -2.599325,3.57514 -5.744536,6.72035 -9.320375,9.32038"
     stroke="#b2667e"
     stroke-width="0.25"
     stroke-linecap="round"
     stroke-linejoin="round"
   />
  <path
     d="m 85.347634,135.71278 c -5.451794,1.61928 -10.960155,2.94157 -16.525086,3.99516"
     stroke="#b2667e"
     stroke-width="0.25"
     stroke-linecap="round"
     stroke-linejoin="round"
   />
  <path
     d="m 88.692249,132.29746 c -1.435427,-0.43133 -3.522099,-1.07409 -6.018186,-1.92969 -4.652763,-1.58392 -7.027934,-2.40487 -9.531092,-3.7908 -2.442347,-1.35906 -4.695896,-3.03278 -6.703373,-4.97803"
     stroke="#b2667e"
     stroke-width="0.25"
     stroke-linecap="round"
     stroke-linejoin="round"
   />
  <path
     d="m 98.973581,134.09351 -7.771103,-8.47821 -4.681047,-5.10531"
     stroke="#b2667e"
     stroke-width="0.25"
     stroke-linecap="round"
     stroke-linejoin="round"
   />
  <path
     d="m 110.02552,133.83203 c -1.31225,-1.03394 -2.53752,-2.17323 -3.66331,-3.40776 l -1.30108,-1.30108 -4.11493,-4.25721 -5.66414,-5.8617"
     stroke="#b2667e"
     stroke-width="0.25"
     stroke-linecap="round"
     stroke-linejoin="round"
   />
  <path
     d="m 121.3888,133.41476 c -6.97285,-6.48622 -13.40067,-13.53303 -19.21952,-21.07143"
     stroke="#b2667e"
     stroke-width="0.25"
     stroke-linecap="round"
     stroke-linejoin="round"
   />
  <path
     d="m 136.01891,133.73289 c -5.72184,-5.42924 -11.12166,-11.18756 -16.17168,-17.24619"
     stroke="#b2667e"
     stroke-width="0.25"
     stroke-linecap="round"
     stroke-linejoin="round"
   />
  <path
     d="m 135.91192,87.849651 c -2.63044,0.19799 -5.13359,-1.583919 -6.61145,-3.783022 -1.47785,-2.199102 -2.13539,-4.850823 -3.0122,-7.368123 -1.51279,-4.771981 -3.70333,-9.301212 -6.50531,-13.449242 -0.48395,-0.892934 -1.17472,-1.657104 -2.01498,-2.227669 -0.26756,-0.141845 -0.56257,-0.225284 -0.86479,-0.2448 -0.30236,-0.01952 -0.60528,0.02546 -0.8889,0.131734 -0.25923,0.119784 -0.49158,0.290196 -0.68349,0.50148 -0.19191,0.211425 -0.33962,0.459549 -0.43381,0.729098 -0.19354,0.528986 -0.27528,1.092268 -0.24028,1.654488 0.197,1.904663 0.7407,3.757495 1.60478,5.466289 2.05054,4.794113 4.08708,9.588227 6.30033,14.318771 l 0.70738,1.498784 c -0.62098,0.182575 -1.28113,0.183706 -1.90254,0.0033 -0.62147,-0.180383 -1.1779,-0.534714 -1.60456,-1.021628 -0.84648,-0.973615 -1.4944,-2.101945 -1.90919,-3.323401 l -5.95412,-14.693538 -2.23418,-5.515574 c -0.62932,-1.562706 -1.35814,-3.223771 -2.80064,-4.086441 -1.44249,-0.86267 -3.78959,-0.297763 -4.05122,1.363938 -0.0344,0.585697 0.0673,1.171323 0.29698,1.711199 2.87623,8.93189 6.9713,17.424454 12.16924,25.236853 -2.76479,0.403051 -5.45887,-1.343503 -7.12057,-3.585032 -1.62464,-2.291167 -2.98611,-4.758121 -4.05879,-7.354052 -1.20081,-2.953867 -2.56545,-5.83851 -4.08729,-8.640632 -0.413515,-0.856731 -1.030253,-1.599334 -1.796191,-2.163606 -0.390535,-0.255336 -0.858004,-0.366281 -1.321512,-0.313319 -0.46365,0.05296 -0.894137,0.266509 -1.216931,0.603304 -0.46669,0.66468 -0.289984,1.562635 -0.07078,2.347524 1.745139,6.40469 4.819424,12.370055 9.022684,17.507964 -3.64867,-0.155564 -6.653665,-2.976991 -8.640635,-6.038763 -1.541492,-2.361737 -2.453872,-5.055601 -3.910512,-7.403196 -0.467327,-0.854397 -1.11928,-1.594172 -1.908835,-2.164242 -0.318127,-0.228466 -0.705551,-0.340259 -1.09651,-0.317703 -0.313319,0.06484 -0.597647,0.226557 -0.813527,0.46266 -0.215809,0.236174 -0.351573,0.53429 -0.387989,0.852135 -0.05508,0.681297 0.056,1.365988 0.324703,1.994465 1.450064,4.070743 3.546565,7.881271 6.20861,11.285354 -3.808619,-0.850933 -7.689009,-1.340887 -11.589622,-1.46357 -0.746846,-0.07849 -1.501329,0.02546 -2.198819,0.303632 -0.348179,0.146936 -0.636467,0.406798 -0.818618,0.737865 -0.182221,0.330997 -0.247628,0.713895 -0.185403,1.086541 0.152028,0.332199 0.377595,0.625506 0.659236,0.858215 0.281711,0.232638 0.612425,0.398596 0.967322,0.485217 4.33018,1.660569 9.005924,2.215153 13.604381,1.612557 -2.38493,3.469914 -4.550869,7.085705 -6.484523,10.825875 0.410122,1.244508 2.284308,0.869388 3.387395,0.176424 3.979031,-2.55902 7.049996,-6.307817 8.775546,-10.712739 l 3.18905,0.134068 c -2.66607,3.144786 -4.873022,6.651541 -6.554805,10.415753 -0.410122,0.905097 -0.580322,2.249095 0.317703,2.638003 0.622254,0.226275 1.230366,-0.183847 1.760696,-0.657609 3.136236,-2.771363 5.726576,-6.105584 7.637176,-9.829208 0.16023,-0.436002 0.45467,-0.809638 0.84117,-1.067449 0.35427,-0.142128 0.73837,-0.19106 1.11695,-0.141138 l 4.68133,0.225991 -6.46967,12.352802 c -0.61518,1.180872 -1.15287,2.849922 -0.0922,3.656022 1.06066,0.8061 2.44624,-0.0845 3.37255,-0.95424 3.61084,-3.415677 6.38807,-7.615608 8.11758,-12.275371 0.18788,-0.678611 0.52885,-1.305249 0.99702,-1.831407 1.33643,-1.336432 3.5921,-0.424264 4.80126,0.855599 3.88201,0.643467 7.83474,1.385929 11.67433,-1.407142 z"
     fill="#b5aeff"
   />
  <path
     d="m 71.374567,71.932253 c 0,0 1.393496,0.869246 2.440014,-1.294501 1.046518,-2.163746 2.615729,-5.444156 2.615729,-5.444156 l -0.89753,-0.389262 z"
     fill="#000000"
   />
  <path
     d="m 76.847786,53.900959 c -1.619487,-1.18702 -3.103704,-2.548201 -4.426347,-4.058934 -2.063762,-2.066873 -4.291431,-3.963192 -6.661087,-5.670855 -0.525169,-0.47553 -1.20788,-0.740059 -1.91633,-0.742533 -0.461529,0.114056 -0.867408,0.388838 -1.144806,0.774989 -0.277257,0.386151 -0.407506,0.858074 -0.368191,1.331836 0.130603,0.948301 0.530684,1.839255 1.152726,2.566939 2.494743,3.355999 5.894159,5.931636 9.800217,7.424762 l -12.586572,0.438336 c -0.452619,-0.04886 -0.910753,7.07e-4 -1.342725,0.144603 -0.431971,0.144038 -0.82781,0.379363 -1.160574,0.690066 -0.141421,0.247628 -0.23179,0.520289 -0.267145,0.803273 -0.03521,0.282984 -0.01421,0.570282 0.06201,0.845063 0.07623,0.274782 0.205981,0.531957 0.38205,0.756251 0.17607,0.224294 0.394778,0.411748 0.643538,0.551048 1.046023,0.510178 2.219325,0.69947 3.372758,0.544331 4.250419,-0.178191 8.470856,-0.796626 12.593642,-1.845478 -1.520279,3.160767 -3.182051,6.166183 -4.843752,9.171387 -0.261629,0.487904 -2.029113,3.627175 -0.636113,4.511059 1.760696,1.19501 2.96999,-0.466974 3.571031,-1.478136 2.433366,-4.095068 4.24858,-8.526435 5.387729,-13.151621 0.33234,0.03536 -0.650397,-3.0407 -1.612062,-3.606386 z"
     fill="#c2e6f5"
   />
  <path
     d="m 84.371614,50.845904 c -2.170818,-1.930401 -3.634882,-4.496987 -5.162233,-6.957719 -1.52735,-2.460731 -3.245478,-4.928393 -5.699139,-6.462814 -1.400071,-0.862671 -3.337685,-1.343645 -4.553909,-0.311269 -0.425749,0.428295 -0.72231,0.967676 -0.856094,1.556696 -0.133785,0.588878 -0.09914,1.203354 0.09977,1.773636 0.414294,1.137523 1.061933,2.17605 1.901764,3.047984 3.297522,3.835772 7.032955,7.27224 11.129861,10.239048 -0.558614,0.247487 -0.06378,3.726311 0.749392,3.577819 -2.147413,3.904007 -3.592456,8.154143 -4.27043,12.557862 -0.119148,0.406375 -0.143189,0.835164 -0.06958,1.252145 0.07361,0.416981 0.242538,0.811334 0.493561,1.152301 0.319117,0.261135 0.714602,0.411254 1.126562,0.4278 0.412032,0.01662 0.818052,-0.101187 1.157181,-0.335805 0.669276,-0.486984 1.212759,-1.12734 1.584272,-1.866974 2.640196,-4.42267 4.682744,-9.175701 6.074048,-14.135065 0.487903,0.03536 -2.121109,-4.101431 -3.705028,-5.515645 z"
     fill="#c2e6f5"
   />
  <path
     d="m 70.512109,36.5627 c 0.424264,0.565686 0.862246,1.117512 1.321866,1.647842 0.661215,0.967534 1.572817,1.737432 2.637508,2.227245 0.436709,0.140007 0.902763,0.161857 1.350645,0.06357 0.148492,-0.03536 0.565968,-0.11342 0.657892,-0.261912 0.09192,-0.148493 -0.162564,-0.388697 -0.325199,-0.565474 -0.774069,-0.862741 -1.661418,-1.616587 -2.637649,-2.241387 -0.893288,-0.581737 -1.939241,-0.884661 -3.005063,-0.869883 z"
     fill="#000000"
   />
  <path
     d="m 74.521688,53.964175 c 3.488369,-0.659943 6.99774,-1.223083 10.528607,-1.689774 3.530797,-0.466619 7.068805,-0.870024 10.613815,-1.209435 3.540271,-0.315865 7.0874,-0.563211 10.64182,-0.742321 3.55441,-0.17911 7.11794,-0.258871 10.69117,-0.239992 l -0.14828,6.356537 c -3.46949,-0.160231 -6.94393,-0.244659 -10.4229,-0.254135 -3.47896,-0.0093 -6.95305,0.06088 -10.422611,0.211708 -3.483633,0.155564 -6.955739,0.389263 -10.415825,0.700319 -3.460085,0.311198 -6.924696,0.702157 -10.394257,1.173585 z"
     fill="#c2e6f5"
   />
  <path
     d="M 102.02036,46.420335 C 98.067636,41.534227 95.246209,35.771236 90.989427,31.146757 c -0.38799,-0.535209 -0.96407,-0.903965 -1.612416,-1.032446 -0.242467,0.021 -0.478216,0.08987 -0.694167,0.202162 -0.215879,0.112359 -0.407435,0.266155 -0.563847,0.452689 -0.15627,0.186535 -0.273721,0.401708 -0.346553,0.633922 -0.07297,0.232214 -0.09942,0.476731 -0.07771,0.719198 0.134351,0.97609 0.535209,1.896531 1.159231,2.659004 l 11.582835,17.09756 c -0.480835,0.353553 -0.13485,3.076268 0.39548,3.069197 -0.909903,5.34898 -1.478911,10.750074 -1.703842,16.171249 -0.02828,0.735391 0.09199,1.689773 0.806172,1.880692 0.71418,0.190919 1.31529,-0.608182 1.63349,-1.308218 2.06397,-4.549313 3.27638,-9.437967 3.5776,-14.424625 0.0283,-0.452548 0.0851,-0.97609 0.46698,-1.216507 0.21213,-0.127279 2.38981,-4.680693 1.68977,-5.112028 -1.93379,-1.291177 -3.70694,-2.807921 -5.28209,-4.518271 z"
     fill="#c2e6f5"
   />
  <path
     d="m 96.62528,51.815277 c -1.18794,-0.678822 -1.584061,-1.697198 -2.418447,-2.772 -1.244508,-1.583919 -4.440489,-6.632521 -5.720352,-8.54878 -3.415326,-5.140666 -3.30926,-6.307534 -7.276129,-10.217834 -1.675843,-1.675843 -3.903512,-3.563536 -5.558142,-1.866479 -0.437487,0.525592 -0.718138,1.163332 -0.810698,1.840952 -0.09249,0.67755 0.0075,1.367262 0.288146,1.991001 0.573393,1.237083 1.371221,2.357494 2.354029,3.302825 5.176022,5.675663 10.152003,11.542033 14.927307,17.599605 -0.756604,0.233345 -0.841528,2.891996 0.07064,2.602082 -1.305885,3.832519 -2.611133,7.664684 -3.916947,11.497274 -0.912168,2.679934 -2.149888,7.184205 0.261346,8.025662 1.590991,0.487903 2.40381,-2.163394 2.976566,-3.711957 2.022326,-5.473007 3.891563,-11.005057 5.607499,-16.595938 0.60104,-0.03536 -0.127209,-2.771646 -0.784818,-3.146413 z"
     fill="#c2e6f5"
   />
  <path
     d="m 100.99541,69.153182 c 0.77782,-4.483057 1.6593,-8.947022 2.64451,-13.392391"
     stroke="#5b7fb2"
     stroke-width="0.15"
     stroke-miterlimit="10"
     stroke-linecap="round"
   />
  <path
     d="m 89.533352,71.309857 c 1.753625,-5.091168 3.738191,-10.097626 5.953839,-15.019089"
     stroke="#5b7fb2"
     stroke-width="0.15"
     stroke-miterlimit="10"
     stroke-linecap="round"
   />
  <path
     d="m 80.015412,69.72608 c 1.69338,-4.525342 3.614801,-8.962791 5.756344,-13.294103"
     stroke="#5b7fb2"
     stroke-width="0.15"
     stroke-miterlimit="10"
     stroke-linecap="round"
   />
  <path
     d="M 103.08838,51.376729 C 99.765612,47.242347 96.670818,42.92949 93.818137,38.457676"
     stroke="#5b7fb2"
     stroke-width="0.15"
     stroke-miterlimit="10"
     stroke-linecap="round"
   />
  <path
     d="M 94.674089,52.832945 79.810281,33.868765"
     stroke="#5b7fb2"
     stroke-width="0.15"
     stroke-miterlimit="10"
     stroke-linecap="round"
   />
  <path
     d="M 83.791433,52.939435 72.251875,39.786825"
     stroke="#5b7fb2"
     stroke-width="0.15"
     stroke-miterlimit="10"
     stroke-linecap="round"
   />
  <path
     d="M 74.083352,54.529931 C 71.099361,51.857067 68.237559,49.08535 65.498651,46.214496"
     stroke="#5b7fb2"
     stroke-width="0.15"
     stroke-miterlimit="10"
     stroke-linecap="round"
   />
  <path
     d="m 74.040572,56.934306 c -3.903229,0.777817 -7.85631,1.364928 -11.823179,1.767979"
     stroke="#5b7fb2"
     stroke-width="0.15"
     stroke-miterlimit="10"
     stroke-linecap="round"
   />
  <path
     d="m 87.800941,56.905951 5.989194,-0.487904"
     stroke="#5b7fb2"
     stroke-width="0.15"
     stroke-miterlimit="10"
     stroke-linecap="round"
   />
  <path
     d="m 75.589277,52.896585 c 0.381131,0.38014 0.803203,0.717218 1.258509,1.004374 0.522976,0.327532 1.089581,0.579757 1.682985,0.749463"
     stroke="#5b7fb2"
     stroke-width="0.15"
     stroke-miterlimit="10"
     stroke-linecap="round"
   />
  <path
     d="M 76.600299,59.098053 71.685907,69.61273"
     stroke="#5b7fb2"
     stroke-width="0.15"
     stroke-miterlimit="10"
     stroke-linecap="round"
   />
  <g opacity="0.2" transform="rotate(45,80.806113,83.712795)">
    <path
       opacity="0.2"
       d="m 147.167,131.092 c 1.24,-6.21 2.23,-12.501 1.08,-18.511 -1,-4.65 -3.13,-6.459 -7.6,-5.489 -8,1.66 -16.41,6.369 -25.43,8.359 -18.0903,4.59 -33.7302,-4 -39.4002,-21.8699 -4.41,-13.24 -4.2399,-27.1698 -8.9299,-39.7598 -3.77,-10.52 -11.7901,-16.4497 -22.6301,-18.4297 -6.9982,-1.2125 -14.1337,-1.4183 -21.19,-0.6104 -27.99997,1.5601 -31.89997,-38.31007 -4,-42.12007 31,0 64.6001,12.45996 75.2701,44.70997 5,14.17 4,30.1499 4.51,44.4199 0.5,5 0.3799,10.8604 4.9001,13.6104 2.35,1.31 5.42,1.4798 8.46,1.2998 4.179,-0.3734 8.326,-1.0417 12.41,-2 5,-1 9.83,-2.0994 15.31,-2.0694 11.22,-0.21 19.26,7.8092 19.3,18.8592 0.13,7.67 -2.31,15 -5,21.79 -0.342,0.869 -0.999,1.577 -1.84,1.982 -0.842,0.404 -1.805,0.476 -2.697,0.2 -0.891,-0.276 -1.646,-0.879 -2.112,-1.688 -0.466,-0.808 -0.609,-1.764 -0.401,-2.673 z"
       fill="#eac9f8"
     />
  </g>
  <path
     d="m 21.855738,78.770117 c 4.311372,4.311371 11.301688,4.31123 15.612918,0 4.311937,-4.311937 4.311725,-11.3019 3.53e-4,-15.613271 -4.311371,-4.311372 -11.301334,-4.311584 -15.613271,3.53e-4 -4.31123,4.31123 -4.311371,11.301546 0,15.612918 z"
     fill="#ffcfd1"
   />
  <path
     fill-rule="evenodd"
     clip-rule="evenodd"
     d="m 29.442923,73.841512 c -1.98499,0.01471 -3.886329,0.800374 -5.30323,2.192102 1.390667,-1.415133 2.178525,-3.312866 2.199102,-5.29623 -0.02051,-1.983435 -0.808647,-3.881734 -2.198395,-5.296937 1.414496,1.390455 3.312088,2.179303 5.295523,2.199809 1.983364,-0.02058 3.882511,-0.809849 5.296937,-2.199809 -1.390031,1.414355 -2.179233,3.313573 -2.19988,5.296866 0.02058,1.983505 0.809425,3.881097 2.19988,5.295593 -1.412517,-1.388474 -3.309472,-2.173858 -5.289937,-2.191394 z"
     fill="#5e58a5"
   />
  <path
     fill-rule="evenodd"
     clip-rule="evenodd"
     d="m 32.525979,114.27395 2.192031,-5.02046 c 0.08047,-0.18823 0.08613,-0.40036 0.01471,-0.59199 -0.07078,-0.1924 -0.212768,-0.34995 -0.396545,-0.44039 l -5.027459,-2.19903 c -0.139653,-0.0675 -0.257245,-0.1738 -0.337714,-0.3066 -0.0804,-0.13272 -0.119855,-0.28673 -0.114905,-0.44159 0.0057,-0.15556 0.056,-0.30603 0.14524,-0.43317 0.08853,-0.12643 0.213263,-0.22514 0.357584,-0.28306 L 40.33958,100.3228 c 0.0985,-0.0387 0.203081,-0.0571 0.308652,-0.0548 0.105571,0.002 0.210223,0.025 0.306814,0.0678 0.09652,0.0428 0.184343,0.10373 0.256892,0.18053 0.07255,0.0768 0.129895,0.16666 0.167655,0.26523 l 3.648812,9.30567 c 0.07389,0.20117 0.0659,0.4237 -0.02128,0.61935 -0.08655,0.19488 -0.246851,0.34854 -0.446184,0.4278 l -10.980661,4.23487 c -0.15224,0.067 -0.320603,0.0853 -0.483096,0.0529 -0.162493,-0.0324 -0.311551,-0.11357 -0.426597,-0.23285 -0.115047,-0.11929 -0.189788,-0.27182 -0.216021,-0.43523 -0.02546,-0.16405 -0.0013,-0.33085 0.07142,-0.48012 z"
     fill="#d8f2c8"
   />
  <path
     fill-rule="evenodd"
     clip-rule="evenodd"
     d="m 39.90174,32.072148 0.119783,0.44576 c 0.06718,0.251023 0.198627,0.480338 0.381697,0.664822 l 0.325269,0.325269 c 0.182575,0.182575 0.313814,0.410263 0.379645,0.659943 0.06583,0.249679 0.06449,0.511945 -0.0043,0.760776 l -0.113574,0.438831 c -0.06732,0.250174 -0.06732,0.513642 -7.1e-5,0.763746 l 0.120703,0.445265 c 0.06555,0.248548 0.06442,0.510177 -0.0026,0.758372 -0.06696,0.248124 -0.197849,0.474327 -0.379575,0.656195 l -0.325198,0.325198 C 40.2196,38.500244 40.087725,38.7297 40.021398,38.981147 L 39.901614,39.4262 c -0.06776,0.24876 -0.199561,0.475742 -0.381854,0.658034 -0.182362,0.182362 -0.408637,0.31346 -0.657397,0.381201 l -0.44576,0.120491 c -0.248901,0.06364 -0.476307,0.193464 -0.657892,0.375191 l -0.325198,0.325198 c -0.181303,0.182575 -0.407011,0.31339 -0.655418,0.380494 -0.248336,0.06703 -0.510036,0.06767 -0.758513,0.0011 L 35.57368,41.547803 c -0.250598,-0.06364 -0.513218,-0.06364 -0.763746,7.1e-5 l -0.445053,0.119784 c -0.248548,0.06555 -0.509682,0.06463 -0.757877,-0.0024 -0.248124,-0.06697 -0.474893,-0.197429 -0.65669,-0.379084 l -0.325269,-0.325269 c -0.184413,-0.183141 -0.413728,-0.314592 -0.664822,-0.381697 l -0.444982,-0.120561 c -0.248831,-0.06767 -0.4756,-0.199263 -0.657963,-0.381626 -0.182292,-0.182292 -0.313743,-0.40892 -0.381413,-0.657751 l -0.113703,-0.438123 c -0.0671,-0.251094 -0.198556,-0.480408 -0.381696,-0.664822 l -0.325199,-0.325198 c -0.181655,-0.181797 -0.312117,-0.408566 -0.37908,-0.65669 -0.06703,-0.248195 -0.06795,-0.509329 -0.0024,-0.757877 l 0.119784,-0.445053 c 0.06364,-0.250599 0.06371,-0.513148 0,-0.763817 l -0.11983,-0.445661 c -0.06659,-0.248456 -0.06618,-0.510383 8.55e-4,-0.758719 0.06711,-0.248399 0.198082,-0.473952 0.380714,-0.655198 l 0.325198,-0.325198 c 0.181734,-0.181578 0.311537,-0.409005 0.375156,-0.657928 l 0.120505,-0.445746 c 0.06771,-0.248795 0.198654,-0.475218 0.381017,-0.657581 0.182292,-0.182292 0.409422,-0.313948 0.658218,-0.381653 l 0.445038,-0.119798 c 0.251476,-0.0663 0.480911,-0.198195 0.664858,-0.382086 l 0.325198,-0.325198 c 0.181818,-0.181776 0.40805,-0.312633 0.656167,-0.379603 0.248187,-0.06704 0.509845,-0.06814 0.758386,-0.0026 l 0.445025,0.120462 c 0.250174,0.06732 0.513642,0.06732 0.763816,0 l 0.438831,-0.113561 c 0.248831,-0.0688 0.511238,-0.07 0.760918,-0.0042 0.249679,0.06583 0.477226,0.196929 0.659801,0.379504 l 0.325198,0.325199 c 0.184484,0.18307 0.413799,0.314521 0.664822,0.381696 l 0.438901,0.112925 c 0.248831,0.06767 0.475388,0.199192 0.65768,0.381484 0.182363,0.182363 0.314026,0.409061 0.381697,0.657892 z"
     stroke="#b5aeff"
     stroke-width="0.67"
     stroke-miterlimit="10"
   />
  <path
     d="m 69.776435,136.19432 c 1.738069,-1.73806 1.739483,-4.55376 0.0035,-6.28971 -1.735947,-1.73594 -4.551646,-1.73453 -6.289715,0.004 l -10.19648,10.19648 c -1.737361,1.73737 -1.739482,4.55377 -0.0035,6.28972 1.735947,1.73595 4.552353,1.73383 6.289715,-0.004 z"
     stroke="#5e58a5"
     stroke-width="0.5"
     stroke-miterlimit="10"
   />
</svg>
