<?xml version="1.0" encoding="UTF-8" standalone="no"?>
<svg
   width="50712.305pt"
   height="50736.598pt"
   viewBox="0 0 50712.305 50736.598"
   version="1.1"
   xmlns="http://www.w3.org/2000/svg">
  <path
     stroke-opacity="0"
     stroke="#000000"
     stroke-width="0"
     stroke-linecap="square"
     stroke-linejoin="bevel"
     d="m 20712.601,20835 c 64.8,-50.4 144,-86.4 223.2,-108 -79.2,21.6 -158.4,57.6 -223.2,108 z" />
  <path
     stroke-opacity="0"
     stroke="#000000"
     stroke-width="0"
     stroke-linecap="square"
     stroke-linejoin="bevel"
     d="m 17919.001,26119.8 c -21.6,-72 -36,-136.8 -43.2,-208.8 0,64.8 21.6,136.8 43.2,208.8 z" />
  <path
     stroke-opacity="0"
     stroke="#000000"
     stroke-width="0"
     stroke-linecap="square"
     stroke-linejoin="bevel"
     d="m 24341.401,25529.4 c 0,14.4 7.2,36 7.2,50.4 0,-14.4 0,-36 -7.2,-50.4 z" />
  <path
     stroke-opacity="0"
     stroke="#000000"
     stroke-width="0"
     stroke-linecap="square"
     stroke-linejoin="bevel"
     d="m 21677.401,21022.2 2491.2,4060.8 -2491.2,-4060.8 c -43.2,-72 -108,-136.8 -172.8,-187.2 72,50.4 129.6,115.2 172.8,187.2 z" />
  <path
     stroke-opacity="0"
     stroke="#000000"
     stroke-width="0"
     stroke-linecap="square"
     stroke-linejoin="bevel"
     d="m 20539.801,21022.2 c 43.2,-72 108,-136.8 172.8,-187.2 -64.8,50.4 -122.4,115.2 -172.8,187.2 l -2491.2,4053.6 c -122.4,201.6 -187.2,432 -194.4,662.4 0,-230.4 64.8,-460.8 194.4,-662.4 z" />
  <path
     stroke-opacity="0"
     stroke="#000000"
     stroke-width="0"
     stroke-linecap="square"
     stroke-linejoin="bevel"
     d="m 12166.201,46992.6 c -57.6,-43.2 -115.2,-86.4 -172.8,-129.6 57.6,50.4 115.2,93.6 172.8,129.6 z" />
  <path
     stroke-opacity="0"
     stroke="#000000"
     stroke-width="0"
     stroke-linecap="square"
     stroke-linejoin="bevel"
     d="m 12461.401,47194.2 c -79.2,-50.4 -158.4,-100.8 -237.6,-158.4 79.2,57.6 158.4,108 237.6,158.4 z" />
  <path
     stroke-opacity="0"
     stroke="#000000"
     stroke-width="0"
     stroke-linecap="square"
     stroke-linejoin="bevel"
     d="m 19632.601,29129.4 936,1598.4 c 14.4,28.8 28.8,50.4 50.4,72 -14.4,-21.6 -36,-50.4 -50.4,-72 z" />
  <path
     stroke-opacity="0"
     stroke="#000000"
     stroke-width="0"
     stroke-linecap="square"
     stroke-linejoin="bevel"
     d="m 24751.801,50686.2 c -93.6,-7.2 -187.2,-21.6 -288,-36 93.6,21.6 194.4,28.8 288,36 z" />
  <path
     stroke-opacity="0"
     stroke="#000000"
     stroke-width="0"
     stroke-linecap="square"
     stroke-linejoin="bevel"
     d="m 25039.801,50707.8 c -72,0 -144,-7.2 -216,-14.4 72,7.2 144,14.4 216,14.4 z" />
  <path
     stroke-opacity="0"
     stroke="#000000"
     stroke-width="0"
     stroke-linecap="square"
     stroke-linejoin="bevel"
     d="m 20619.001,30799.8 c 36,43.2 79.2,86.4 122.4,122.4 -50.4,-36 -86.4,-79.2 -122.4,-122.4 z" />
  <path
     stroke-opacity="0"
     stroke="#000000"
     stroke-width="0"
     stroke-linecap="square"
     stroke-linejoin="bevel"
     d="m 21144.601,31059 c -151.2,0 -288,-50.4 -403.2,-136.8 108,86.4 252,136.8 403.2,136.8 0,0 0,0 0,0 136.8,0 259.2,-36 360,-108 -108,64.8 -230.4,100.8 -360,108 0,0 0,0 0,0 z" />
  <path
     stroke-opacity="0"
     stroke="#000000"
     stroke-width="0"
     stroke-linecap="square"
     stroke-linejoin="bevel"
     d="m 21677.401,30792.6 c 14.4,-21.6 36,-50.4 50.4,-72 l 1317.6,-2304 -1317.6,2304 c -21.6,21.6 -36,50.4 -50.4,72 z" />
  <path
     stroke-opacity="0"
     stroke="#000000"
     stroke-width="0"
     stroke-linecap="square"
     stroke-linejoin="bevel"
     d="m 49843.801,22102.2 -928.8,-1612.8 c -475.2,-820.8 -720,-1749.6 -720,-2700 v -1864.8 c 0,-2318.4 -1245.6,-4478.4 -3254.4,-5637.6 l -1612.8,-928.8 c -820.8,-475.2 -1504.8,-1159.2 -1972.8,-1972.8 l -928.8,-1612.8 c -1159.2,-2008.8 -3319.2,-3254.4 -5637.6,-3254.4 h -1864.8 c -943.2,0 -1879.2,-252 -2700,-720 l -1612.8,-928.8 c -2008.8,-1159.2 -4500,-1159.2 -6508.8,0 l -1612.8,928.8 c -820.8,475.2 -1749.6,720 -2700,720 h -1864.8 c -2318.4,0 -4478.4,1245.6 -5637.6,3254.4 l -928.8011,1612.8 c -475.2,820.8 -1159.2,1504.8 -1972.8,1972.8 l -1612.8,928.8 c -2008.8,1159.2 -3254.4,3319.2 -3254.4,5637.6 v 1864.8 c 0,943.2 -252,1879.2 -720,2700 L 869.4,22102.2 c -1159.2,2008.8 -1159.2,4500 0,6508.8 l 928.7999,1612.8 c 475.2,820.8 720,1749.6 720,2700 v 1864.8 c 0,2318.4 1245.6,4478.4 3254.4,5637.6 l 1612.8,928.8 c 820.8,475.2 1504.8,1159.2 1972.8,1972.8 l 928.8011,1612.8 c 388.8,676.8 892.8,1260 1468.8,1742.4 50.4,43.2 100.8,79.2 151.2,115.2 -43.2,-36 -86.4,-72 -136.8,-108 -7.2,-7.2 -21.6,0 -21.6,7.2 l 13579.2,4039.2 c 0,-7.2 0,-21.6 -14.4,-21.6 -57.6,0 -115.2,0 -165.6,-7.2 64.8,0 122.4,7.2 187.2,7.2 7.2,0 14.4,0 14.4,0 28.8,0 50.4,0 79.2,0 l 13564.8,-4075.2 c 561.6,-475.2 1044,-1051.2 1425.6,-1706.4 l 928.8,-1612.8 c 475.2,-820.8 1159.2,-1504.8 1972.8,-1972.8 l 1612.8,-928.8 c 2008.8,-1159.2 3254.4,-3319.2 3254.4,-5637.6 v -1864.8 c 0,-943.2 252,-1879.2 720,-2700 l 928.8,-1612.8 c 1166.4,-2001.6 1166.4,-4492.8 7.2,-6501.6 z m -25668,28519.2 c -681.624,-163.224 -837.576,-196.776 -468,-100.8 151.2,43.2 309.6,72 468,100.8 72,14.4 144,21.6 216,36 -72,-7.2 -136.8,-21.6 -208.8,-36 0,-7.2 -7.2,-7.2 -7.2,0 z m -12189.6,-3751.2 c 57.6,43.2 64.8,43.2 0,0 z m 12837.6,3823.2 c 72,7.2 144,14.4 216,14.4 -72,0 -144,-7.2 -216,-14.4 z m -360,-36 c 93.6,14.4 187.2,21.6 288,36 -93.6,-14.4 -194.4,-21.6 -288,-36 z m 24415.2,-22600.8 -928.8,1612.8 c -568.8,986.4 -871.2,2116.8 -871.2,3254.4 v 1864.8 c 0,1922.4 -1036.8,3715.2 -2700,4672.8 l -1612.8,928.8 c -986.4,568.8 -1814.4,1396.8 -2383.2,2383.2 l -936,1605.6 c -957.6,1663.2 -2750.4,2700 -4672.8,2700 h -1864.8 c -1137.6,0 -2268,302.4 -3254.4,871.2 l -1612.8,928.8 c -1663.2,957.6 -3729.6,957.6 -5392.8,0 l -1612.8,-928.8 c -986.4,-568.8 -2116.8,-871.2 -3254.4,-871.2 h -1864.8 c -1922.4,0 -3715.2,-1036.8 -4672.8,-2700 l -928.8,-1612.8 C 9746.9999,41779.8 8918.9999,40951.8 7932.5999,40383 l -1612.8,-928.8 c -1663.2,-957.6 -2700,-2750.4 -2700,-4672.8 v -1864.8 c 0,-1144.8 -302.4,-2268 -871.2,-3254.4 l -928.8,-1612.8 c -957.5999,-1663.2 -957.5999,-3729.6 0,-5392.8 l 928.8,-1612.8 c 568.8,-986.4 871.2,-2116.8 871.2,-3254.4 v -1864.8 c 0,-1922.4 1036.8,-3715.2 2700,-4672.8 l 1612.8,-928.8 c 986.4,-568.8 1814.4,-1396.8 2383.2011,-2383.2 l 928.8,-1612.8 c 957.6,-1663.2 2750.4,-2700 4672.8,-2700 h 1864.8 c 1137.6,0 2268,-302.4 3254.4,-871.2 l 1612.8,-928.8 c 1663.2,-957.6 3729.6,-957.6 5392.8,0 l 1612.8,928.8 c 986.4,568.8 2116.8,871.2 3254.4,871.2 h 1864.8 c 1922.4,0 3715.2,1036.8 4672.8,2700 l 928.8,1612.8 c 568.8,986.4 1396.8,1814.4 2383.2,2383.2 l 1620,936 c 1663.2,957.6 2700,2750.4 2700,4672.8 v 1864.8 c 0,1144.8 302.4,2268 871.2,3254.4 l 928.8,1612.8 c 957.6,1656 957.6,3729.6 0,5392.8 z" />
  <path
     stroke-opacity="0"
     stroke="#000000"
     stroke-width="0"
     stroke-linecap="square"
     stroke-linejoin="bevel"
     d="m 14448.601,21238.2 c -424.8,-230.4 -928.8,-352.8 -1497.6,-352.8 h -2282.4 c -525.6,0 -950.4011,424.8 -950.4011,950.4 v 8892 c 0,100.8 21.6,187.2 72,252 50.4,64.8 122.4,100.8 216.0011,100.8 h 612 c 93.6,0 165.6,-36 216,-100.8 50.4,-64.8 79.2,-151.2 79.2,-252 V 27387 c 0,-144 115.2,-266.4 266.4,-266.4 h 1771.2 c 576,0 1080,-115.2 1497.6,-352.8 424.8,-230.4 756,-583.2 986.4,-1036.8 230.4,-453.6 352.8,-1029.6 352.8,-1720.8 0,-684 -115.2,-1267.2 -352.8,-1728 -230.4,-460.8 -561.6,-813.6 -986.4,-1044 z m -288,4154.4 c -280.8,316.8 -712.8,475.2 -1274.4,475.2 h -1713.6 c -151.2,0 -273.6,-122.4 -273.6,-273.6 v -3168 c 0,-151.2 122.4,-273.6 273.6,-273.6 h 1713.6 c 583.2,0 1015.2,165.6 1288.8,489.6 273.6,324 410.4,784.8 410.4,1382.4 0,590.4 -136.8,1051.2 -424.8,1368 z" />
  <path
     stroke-opacity="0"
     stroke="#000000"
     stroke-width="0"
     stroke-linecap="square"
     stroke-linejoin="bevel"
     d="m 30684.601,21216.6 c -28.8,-100.8 -79.2,-180 -129.6,-237.6 -57.6,-64.8 -144,-93.6 -259.2,-93.6 h -792 c -115.2,0 -201.6,28.8 -259.2,93.6 -57.6,57.6 -100.8,144 -129.6,237.6 l -2880,9388.8 c -7.2,57.6 -14.4,115.2 -14.4,158.4 0,79.2 21.6,151.2 72,216 50.4,64.8 108,93.6 180,93.6 h 590.4 c 100.8,0 172.8,-28.8 223.2,-93.6 50.4,-57.6 79.2,-115.2 86.4,-165.6 l 568.8,-1828.8 c 43.2,-129.6 158.4,-216 295.2,-216 h 3326.4 c 136.8,0 252,86.4 295.2,216 l 568.8,1828.8 c 14.4,50.4 43.2,108 86.4,165.6 43.2,64.8 122.4,93.6 216,93.6 h 590.4 c 64.8,0 129.6,-28.8 180,-93.6 50.4,-57.6 72,-129.6 72,-216 0,-50.4 -7.2,-100.8 -21.6,-165.6 z m 698.4,6228 c -21.6,28.8 -57.6,43.2 -93.6,43.2 h -2779.2 c -36,0 -72,-14.4 -93.6,-43.2 -21.6,-28.8 -28.8,-64.8 -14.4,-100.8 l 1389.6,-4564.8 c 21.6,-57.6 72,-79.2 108,-79.2 36,0 93.6,21.6 108,79.2 l 1389.6,4564.8 c 14.4,36 7.2,72 -14.4,100.8 z" />
  <path
     stroke-opacity="0"
     stroke="#000000"
     stroke-width="0"
     stroke-linecap="square"
     stroke-linejoin="bevel"
     d="m 24341.401,25529.4 c -14.4,-100.8 -43.2,-201.6 -86.4,-295.2 -21.6,-50.4 -50.4,-108 -79.2,-158.4 l -2491.2,-4060.8 c -43.2,-72 -108,-136.8 -172.8,-187.2 -115.2,-86.4 -252,-129.6 -396,-129.6 -57.6,0 -115.2,7.2 -172.8,21.6 -79.2,21.6 -158.4,57.6 -223.2,108 -64.8,50.4 -129.6,115.2 -172.8,187.2 l -2491.2,4053.6 c -122.4,201.6 -187.2,432 -194.4,662.4 0,57.6 0,115.2 7.2,172.8 7.2,72 28.8,144 43.2,208.8 28.8,93.6 64.8,194.4 122.4,280.8 l 1598.4,2728.8 936,1598.4 c 14.4,28.8 28.8,50.4 50.4,72 36,43.2 79.2,86.4 122.4,122.4 115.2,86.4 252,136.8 403.2,136.8 0,0 0,0 7.2,0 129.6,0 252,-36 360,-108 43.2,-28.8 79.2,-57.6 115.2,-93.6 21.6,-21.6 43.2,-43.2 57.6,-64.8 14.4,-21.6 36,-50.4 50.4,-72 l 1317.6,-2304 1152,-2016 c 144,-252 194.4,-540 158.4,-813.6 -14.4,-14.4 -14.4,-36 -21.6,-50.4 z m -3031.2,3484.8 c -79.2,136.8 -273.6,136.8 -352.8,0 l -1821.6,-3117.6 c -36,-64.8 -36,-144 0,-208.8 l 1800,-2930.4 c 79.2,-129.6 266.4,-129.6 345.6,0 l 1800,2930.4 c 36,64.8 43.2,144 0,208.8 z" />
  <path
     stroke-opacity="0"
     stroke="#000000"
     stroke-width="0"
     stroke-linecap="square"
     stroke-linejoin="bevel"
     d="m 40678.201,21238.2 c -424.8,-230.4 -928.8,-352.8 -1497.6,-352.8 h -2289.6 c -525.6,0 -950.4,424.8 -950.4,950.4 v 8892 c 0,100.8 21.6,187.2 72,252 50.4,64.8 122.4,100.8 216,100.8 h 612 c 93.6,0 165.6,-36 216,-100.8 50.4,-64.8 79.2,-151.2 79.2,-252 V 27387 c 0,-144 115.2,-266.4 266.4,-266.4 h 1771.2 c 576,0 1080,-115.2 1497.6,-352.8 424.8,-230.4 756,-583.2 986.4,-1036.8 230.4,-453.6 352.8,-1036.8 352.8,-1720.8 0,-684 -115.2,-1267.2 -352.8,-1728 -223.2,-460.8 -554.4,-813.6 -979.2,-1044 z m -280.8,4154.4 c -280.8,316.8 -712.8,475.2 -1274.4,475.2 h -1713.6 c -151.2,0 -273.6,-122.4 -273.6,-273.6 v -3168 c 0,-151.2 122.4,-273.6 273.6,-273.6 h 1713.6 c 583.2,0 1015.2,165.6 1288.8,489.6 273.6,324 410.4,784.8 410.4,1382.4 0,590.4 -144,1051.2 -424.8,1368 z" />
</svg>
